<svg xmlns="http://www.w3.org/2000/svg" viewBox="0 0 64 64">
  <!-- Ground shadow -->
  <ellipse cx="34" cy="60" rx="10" ry="1.6" fill="#000000" opacity="0.28"/>

  <!-- Body bob group (subtle breathing/tension during aim, slight recoil on release) -->
  <g>
    <animateTransform attributeName="transform" type="translate"
                      values="0,0; 0,-0.3; 0,0; 0,-0.3; 0,0.4; 0,0.2; 0,0; 0,0; 0,0; 0,0; 0,0; 0,-0.2; 0,-0.3; 0,-0.3; 0,-0.4; 0,-0.2"
                      dur="1.6s" repeatCount="indefinite"/>

    <!-- BACK LEG (planted) -->
    <g transform="translate(38, 44)">
      <rect x="-2" y="0" width="4" height="13" fill="#3a4a2a"/>
      <rect x="-2.2" y="0" width="0.7" height="13" fill="#2a3a1a"/>
      <rect x="-3" y="12" width="6" height="3" fill="#2a1a10"/>
      <rect x="-3" y="12" width="6" height="0.5" fill="#4a2a18"/>
    </g>

    <!-- FRONT LEG (slight forward stance) -->
    <g transform="translate(32, 44)">
      <rect x="-2" y="0" width="4" height="13" fill="#4a5a3a"/>
      <rect x="-2.2" y="0" width="0.7" height="13" fill="#3a4a2a"/>
      <rect x="-3" y="12" width="6" height="3" fill="#2a1a10"/>
      <rect x="-3" y="12" width="6" height="0.5" fill="#4a2a18"/>
    </g>

    <!-- TORSO (tunic) -->
    <g>
      <rect x="32" y="26" width="7" height="18" fill="#4a6a3a"/>
      <rect x="32" y="26" width="1" height="18" fill="#3a5a2a"/>
      <rect x="38" y="26" width="1" height="18" fill="#5a7a4a"/>
      <!-- chest detail (cross strap from quiver) -->
      <polygon points="32,29 39,26 39,28 32,31" fill="#3a2a1a"/>
      <!-- belt -->
      <rect x="31" y="40" width="9" height="2" fill="#2a1a10"/>
      <rect x="31" y="40" width="9" height="0.4" fill="#4a2a18"/>
      <!-- belt buckle -->
      <rect x="34.5" y="40.3" width="2" height="1.4" fill="#b89248"/>
    </g>

    <!-- BACK ARM (draws bowstring) -->
    <g transform="translate(36, 27)">
      <animateTransform attributeName="transform" type="rotate"
                        values="-125; -122; -127; -130; -110; -80; -40; -10; 0; 0; -10; -40; -80; -105; -120; -125"
                        dur="1.6s" repeatCount="indefinite" additive="sum"/>
      <!-- upper arm (extends DOWN from shoulder in local frame; rotates up-and-back) -->
      <rect x="-1.8" y="0" width="3.6" height="7" fill="#4a6a3a"/>
      <rect x="-1.8" y="0" width="0.6" height="7" fill="#3a5a2a"/>
      <!-- elbow joint -->
      <g transform="translate(0, 7)">
        <animateTransform attributeName="transform" type="rotate"
                          values="-85; -85; -85; -88; -40; -10; 0; 0; 0; 0; 0; -10; -30; -55; -75; -85"
                          dur="1.6s" repeatCount="indefinite" additive="sum"/>
        <!-- forearm -->
        <rect x="-1.5" y="0" width="3" height="7" fill="#e8b88a"/>
        <rect x="-1.5" y="0" width="0.6" height="7" fill="#d89868"/>
        <!-- bracer -->
        <rect x="-1.7" y="0" width="3.4" height="3" fill="#3a2a1a"/>
        <!-- hand -->
        <circle cx="0" cy="8" r="1.8" fill="#d89868"/>
        <circle cx="-0.4" cy="7.6" r="0.6" fill="#e8b88a"/>
      </g>
    </g>

    <!-- HEAD (profile, looking LEFT down the arrow) -->
    <g transform="translate(34, 18)">
      <!-- skin base (head shape) -->
      <ellipse cx="0" cy="0" rx="4.5" ry="5.5" fill="#e8b88a"/>
      <!-- jaw shadow -->
      <ellipse cx="0" cy="2" rx="4.2" ry="3" fill="#d89868" opacity="0.5"/>
      <!-- nose (prominent, points LEFT) -->
      <polygon points="-3.5,0 -6,1.5 -3.5,3" fill="#e8b88a"/>
      <polygon points="-3.5,0 -5.5,1.5 -3.5,2.5" fill="#d89868"/>
      <!-- eye (focused, looking LEFT) -->
      <ellipse cx="-1.8" cy="-1.5" rx="1.2" ry="0.8" fill="#ffffff"/>
      <circle cx="-2.2" cy="-1.5" r="0.7" fill="#1a1a1a"/>
      <!-- eyebrow (focused, slight V) -->
      <polygon points="-3.5,-3 -0.5,-2.8 -3.5,-2.4" fill="#3a2a1a"/>
      <!-- mouth (firm, slight downturn for concentration) -->
      <rect x="-3" y="2.5" width="2.5" height="0.5" fill="#8a5a3a"/>
      <!-- ear -->
      <ellipse cx="2.5" cy="0" rx="1" ry="1.5" fill="#d89868"/>
      <!-- HOOD (over head, hood drapes back over shoulders) -->
      <path d="M -5,-4.5 Q 0,-7.5 5.5,-3 L 6,4 L 4,5 L -1,4 L -4.5,4.5 L -5.5,2 Z" fill="#2a3a1a"/>
      <!-- hood interior shadow -->
      <path d="M -4,-4 Q 0,-7 5,-3 L 5,1 L -4,1 Z" fill="#1a2a10"/>
      <!-- hood highlight -->
      <path d="M -4,-3 Q 0,-6.5 4,-3" fill="none" stroke="#3a4a2a" stroke-width="0.5"/>
      <!-- hood tip in back -->
      <polygon points="5,4 7,7 4,5" fill="#1a2a10"/>
    </g>

    <!-- FRONT ARM (locked extended, holds bow) -->
    <g>
      <animateTransform attributeName="transform" type="translate"
                        values="0,0; 0,0; 0,0.1; 0,-0.1; 0.3,0; 0.2,0; 0,0; 0,0; 0,0; 0,0; 0,0; 0,0; 0,0; 0,0; 0,0; 0,0"
                        dur="1.6s" repeatCount="indefinite" additive="sum"/>
      <!-- shoulder to wrist -->
      <rect x="20" y="27" width="13" height="3.5" fill="#4a6a3a"/>
      <rect x="20" y="27" width="13" height="0.7" fill="#5a7a4a"/>
      <!-- bracer on forearm -->
      <rect x="22" y="27" width="6" height="3.5" fill="#3a2a1a"/>
      <rect x="22" y="27" width="6" height="0.5" fill="#5a3a18"/>
      <!-- hand gripping bow -->
      <circle cx="19" cy="29" r="2.1" fill="#d89868"/>
      <circle cx="19" cy="28.5" r="0.8" fill="#e8b88a"/>
    </g>

    <!-- QUIVER ON BACK (peeks out behind torso) -->
    <g transform="translate(40, 28)">
      <rect x="0" y="0" width="3.5" height="14" fill="#3a2a1a"/>
      <rect x="0" y="0" width="3.5" height="2" fill="#2a1a10"/>
      <rect x="0" y="0" width="0.7" height="14" fill="#2a1a10"/>
      <!-- arrow fletchings peeking out top -->
      <polygon points="0.5,-3 1.2,1 1.9,-3" fill="#cc3333"/>
      <polygon points="1.5,-2 2.2,1 2.9,-2" fill="#cc3333"/>
    </g>

    <!-- BOW (vertical curved, in front of archer) -->
    <g>
      <animateTransform attributeName="transform" type="scale"
                        values="1,1; 1,1; 1,1; 1,1; 1,0.95; 1,0.97; 1,1; 1,1; 1,1; 1,1; 1,1; 1,1; 1,1; 1,1; 1,1; 1,1"
                        dur="1.6s" repeatCount="indefinite" additive="sum"/>
      <!-- main curve -->
      <path d="M 17,13 Q 9,22 12,30 Q 9,38 17,47" stroke="#5a3a18" stroke-width="3" fill="none" stroke-linecap="round"/>
      <!-- highlight along inner curve -->
      <path d="M 17,13 Q 10,22 13,30 Q 10,38 17,47" stroke="#8b5a33" stroke-width="0.8" fill="none" stroke-linecap="round"/>
      <!-- bow tips -->
      <circle cx="17" cy="13" r="0.8" fill="#3a2410"/>
      <circle cx="17" cy="47" r="0.8" fill="#3a2410"/>
      <!-- grip wrap -->
      <rect x="14" y="27" width="6" height="6" fill="#3a2410"/>
      <rect x="14" y="27" width="6" height="1.2" fill="#5a3a1a"/>
      <rect x="14" y="32" width="6" height="0.8" fill="#5a3a1a"/>
    </g>

    <!-- BOWSTRING (animated middle point shows draw / release / snap / vibration) -->
    <polyline points="17,13 28,30 17,47" stroke="#ffffff" stroke-width="0.9" fill="none" opacity="0.95">
      <animate attributeName="points"
               values="17,13 28,30 17,47;
                       17,13 28,30 17,47;
                       17,13 29,30 17,47;
                       17,13 30,30 17,47;
                       17,13 11,30 17,47;
                       17,13 14,30 17,47;
                       17,13 12,30 17,47;
                       17,13 13,30 17,47;
                       17,13 13,30 17,47;
                       17,13 13,30 17,47;
                       17,13 14,30 17,47;
                       17,13 18,30 17,47;
                       17,13 22,30 17,47;
                       17,13 25,30 17,47;
                       17,13 27,30 17,47;
                       17,13 28,30 17,47"
               dur="1.6s" repeatCount="indefinite"/>
    </polyline>

    <!-- ARROW (translates as string moves; flies away on release) -->
    <g>
      <animateTransform attributeName="transform" type="translate"
                        values="0,0; 0,0; 0,0; 0,0; -30,0; -60,0; -90,0; -90,0; -90,0; -90,0; -90,0; -14,0; -10,0; -5,0; -2,0; 0,0"
                        dur="1.6s" repeatCount="indefinite" additive="sum"/>
      <g>
        <animate attributeName="opacity"
                 values="1; 1; 1; 1; 1; 0.5; 0; 0; 0; 0; 0; 0.7; 1; 1; 1; 1"
                 dur="1.6s" repeatCount="indefinite"/>
        <!-- arrow shaft -->
        <rect x="6" y="29.2" width="22" height="1.6" fill="#8b5a2b"/>
        <rect x="6" y="29.2" width="22" height="0.5" fill="#a87a4b"/>
        <!-- arrowhead (steel, on LEFT) -->
        <polygon points="6,27.5 1,30 6,32.5" fill="#9a9a9a"/>
        <polygon points="6,28 3,30 6,32" fill="#6a6a6a"/>
        <polygon points="3,30 6,28.7 6,31.3" fill="#cacaca"/>
        <!-- fletching (RED, on RIGHT at nocking point) -->
        <polygon points="28,27.5 32,30 28,32.5" fill="#cc3333"/>
        <polygon points="28,28 30,30 28,32" fill="#aa1a1a"/>
        <polygon points="28,29.2 30,30 28,30.8" fill="#ee5555"/>
      </g>
    </g>

    <!-- ARROW SPEED LINES (visible during release flight) -->
    <g>
      <animate attributeName="opacity"
               values="0; 0; 0; 0; 0.9; 0.5; 0; 0; 0; 0; 0; 0; 0; 0; 0; 0"
               dur="1.6s" repeatCount="indefinite"/>
      <animateTransform attributeName="transform" type="translate"
                        values="0,0; 0,0; 0,0; 0,0; -20,0; -50,0; -90,0; -90,0; -90,0; -90,0; -90,0; -90,0; -90,0; -90,0; -90,0; -90,0"
                        dur="1.6s" repeatCount="indefinite"/>
      <line x1="6" y1="29" x2="14" y2="29" stroke="#fff299" stroke-width="0.5" opacity="0.7"/>
      <line x1="6" y1="30" x2="16" y2="30" stroke="#ffffff" stroke-width="0.6"/>
      <line x1="6" y1="31" x2="14" y2="31" stroke="#fff299" stroke-width="0.5" opacity="0.7"/>
    </g>
  </g>

  <!-- RELEASE FLASH (burst at bow center on release) -->
  <g>
    <animate attributeName="opacity"
             values="0; 0; 0; 0; 1; 0.5; 0; 0; 0; 0; 0; 0; 0; 0; 0; 0"
             dur="1.6s" repeatCount="indefinite"/>
    <circle cx="14" cy="30" r="5" fill="#fff8cc" opacity="0.7"/>
    <circle cx="14" cy="30" r="3" fill="#ffffff"/>
    <polygon points="14,30 6,28 9,30 6,32" fill="#fff8cc" opacity="0.8"/>
    <polygon points="14,30 22,29 18,30 22,31" fill="#fff8cc" opacity="0.4"/>
  </g>
</svg>
