<svg xmlns="http://www.w3.org/2000/svg" viewBox="0 0 64 64">
  <!-- Ground shadow (pulses with magic glow when chest is open) -->
  <ellipse cx="32" cy="59" rx="18" ry="2.5" fill="#000000" opacity="0.35">
    <animate attributeName="rx"
             values="18;18;18;18;18;18;18;18;18;19;21;21;21;21;21;21;21;21;21;21;21;20;19;18;18;18;18;18;18;18"
             dur="3s" repeatCount="indefinite"/>
  </ellipse>

  <!-- INTERIOR cavity (gated — only visible when lid lifts) -->
  <g>
    <animate attributeName="opacity"
             values="0;0;0;0;0;0;0;0;0.3;1;1;1;1;1;1;1;1;1;1;1;1;0.9;0.5;0.1;0;0;0;0;0;0"
             dur="3s" repeatCount="indefinite"/>
    <rect x="18" y="20" width="28" height="10" fill="#0a0402"/>
    <rect x="18" y="20" width="28" height="2" fill="#180a04"/>
  </g>

  <!-- MAGIC GLOW rays (gated) -->
  <g>
    <animate attributeName="opacity"
             values="0;0;0;0;0;0;0;0;0.3;0.85;1;0.95;1;0.9;1;0.95;1;0.9;1;0.95;0.9;0.7;0.4;0.1;0;0;0;0;0;0"
             dur="3s" repeatCount="indefinite"/>
    <!-- soft radial bloom -->
    <circle cx="32" cy="26" r="18" fill="#ffdd66" opacity="0.18"/>
    <circle cx="32" cy="26" r="12" fill="#ffee88" opacity="0.32"/>
    <circle cx="32" cy="26" r="6" fill="#fff8cc" opacity="0.5"/>
    <!-- rays -->
    <polygon points="32,26 18,2 24,24" fill="#ffdd66" opacity="0.45"/>
    <polygon points="32,26 32,0 36,24" fill="#fff2aa" opacity="0.6"/>
    <polygon points="32,26 46,2 40,24" fill="#ffdd66" opacity="0.45"/>
    <polygon points="32,26 8,16 22,24" fill="#ffaa22" opacity="0.3"/>
    <polygon points="32,26 56,16 42,24" fill="#ffaa22" opacity="0.3"/>
  </g>

  <!-- TREASURE pile (gated, with internal slow bob — secondary motion) -->
  <g>
    <animate attributeName="opacity"
             values="0;0;0;0;0;0;0;0;0.3;1;1;1;1;1;1;1;1;1;1;1;1;0.9;0.6;0.2;0;0;0;0;0;0"
             dur="3s" repeatCount="indefinite"/>
    <g>
      <animateTransform attributeName="transform" type="translate"
                        values="0,0.4; 0,0; 0,-0.4; 0,0; 0,0.4"
                        dur="1s" repeatCount="indefinite" additive="sum"/>
      <!-- gold pile (layered for depth) -->
      <ellipse cx="32" cy="30" rx="12" ry="2.5" fill="#5a3a0e"/>
      <ellipse cx="32" cy="29" rx="11" ry="2.2" fill="#8a5e1a"/>
      <ellipse cx="32" cy="28.5" rx="9" ry="1.8" fill="#b8852a"/>
      <ellipse cx="32" cy="28" rx="7" ry="1.4" fill="#d4a850"/>
      <!-- individual coins -->
      <circle cx="22" cy="27.5" r="1.7" fill="#ffd54a"/>
      <circle cx="22" cy="27.5" r="0.7" fill="#fff099"/>
      <circle cx="26" cy="25.5" r="1.7" fill="#ffd54a"/>
      <circle cx="26" cy="25.5" r="0.7" fill="#fff099"/>
      <circle cx="38" cy="25.5" r="1.7" fill="#ffd54a"/>
      <circle cx="38" cy="25.5" r="0.7" fill="#fff099"/>
      <circle cx="42" cy="27.5" r="1.7" fill="#ffd54a"/>
      <circle cx="42" cy="27.5" r="0.7" fill="#fff099"/>
      <!-- side emerald -->
      <polygon points="20,26.5 18.5,28.5 20,30.5 21.5,28.5" fill="#1d6a3a"/>
      <polygon points="20,26.5 19.2,28 20,29.5 20.8,28" fill="#2cb260"/>
      <!-- center ruby (tall faceted) -->
      <polygon points="32,20 28,24 32,30 36,24" fill="#7a1a26"/>
      <polygon points="32,20 29,23 32,28 35,23" fill="#b32838"/>
      <polygon points="32,20 30.5,22 32,26 33.5,22" fill="#dc3a4a"/>
      <polygon points="32,21 31,22.5 32,24 33,22.5" fill="#ff6677"/>
      <polygon points="32,22 31.4,23 32,24 32.6,23" fill="#ffbbcc">
        <animate attributeName="opacity" values="0.6;1;0.7;1;0.8" dur="0.6s" repeatCount="indefinite"/>
      </polygon>
    </g>
  </g>

  <!-- CHEST BASE (front body — taller, fully covers any closed-state gap) -->
  <g>
    <rect x="18" y="30" width="28" height="26" fill="#4a3320"/>
    <rect x="18" y="30" width="28" height="26" fill="none" stroke="#1a0e05" stroke-width="1.2"/>
    <!-- vertical wood grain -->
    <line x1="24" y1="30" x2="24" y2="55" stroke="#3a2715" stroke-width="0.7"/>
    <line x1="32" y1="30" x2="32" y2="55" stroke="#3a2715" stroke-width="0.7"/>
    <line x1="40" y1="30" x2="40" y2="55" stroke="#3a2715" stroke-width="0.7"/>
    <!-- top edge highlight (lid-rest rim) -->
    <rect x="18.5" y="30" width="27" height="1" fill="#7a5530"/>
    <!-- iron horizontal bands -->
    <rect x="17" y="34" width="30" height="2.5" fill="#222222"/>
    <rect x="17" y="34" width="30" height="0.5" fill="#5a5a5a"/>
    <rect x="17" y="50" width="30" height="2.5" fill="#222222"/>
    <rect x="17" y="50" width="30" height="0.5" fill="#5a5a5a"/>
    <!-- iron rivets -->
    <circle cx="20" cy="35.25" r="0.5" fill="#6a6a6a"/>
    <circle cx="44" cy="35.25" r="0.5" fill="#6a6a6a"/>
    <circle cx="20" cy="51.25" r="0.5" fill="#6a6a6a"/>
    <circle cx="44" cy="51.25" r="0.5" fill="#6a6a6a"/>
    <!-- brass lock plate -->
    <rect x="28" y="40" width="8" height="7" fill="#7a5818"/>
    <rect x="28" y="40" width="8" height="7" fill="none" stroke="#2a1808" stroke-width="0.7"/>
    <rect x="28.6" y="40.8" width="6.8" height="1" fill="#d4a850"/>
    <!-- keyhole -->
    <circle cx="32" cy="43.5" r="1.1" fill="#1a0a05"/>
    <polygon points="32,43.5 31.3,46 32.7,46" fill="#1a0a05"/>
  </g>

  <!-- CHEST LID (rotates around hinge at back-top of chest body = pivot (46, 30)) -->
  <g transform="translate(46,30)">
    <animateTransform attributeName="transform" type="rotate"
                      values="0; 0; 0; 0; 1.5; -2; 1; -3; 40; 80; 100; 90; 95; 96; 95; 96; 95; 96; 95; 96; 95; 88; 55; 22; 5; -2; 0.5; 0; 0; 0"
                      dur="3s" repeatCount="indefinite" additive="sum"/>
    <!-- Solid rectangle base (covers the entire lid area to hide interior when closed) -->
    <rect x="-28" y="-11" width="28" height="11" fill="#4a3320"/>
    <!-- Arched top profile drawn ABOVE the rectangle with outline -->
    <path d="M -28,0 L -28,-8 Q -14,-14 0,-8 L 0,0 Z" fill="#4a3320" stroke="#1a0e05" stroke-width="1.2"/>
    <!-- highlight curve on the arch -->
    <path d="M -26,-7 Q -14,-12 -2,-7" fill="none" stroke="#7a5530" stroke-width="0.6"/>
    <!-- vertical plank lines -->
    <line x1="-22" y1="-10" x2="-22" y2="-0.5" stroke="#3a2715" stroke-width="0.7"/>
    <line x1="-14" y1="-12" x2="-14" y2="-0.5" stroke="#3a2715" stroke-width="0.7"/>
    <line x1="-6" y1="-10" x2="-6" y2="-0.5" stroke="#3a2715" stroke-width="0.7"/>
    <!-- iron band across lid (near bottom) -->
    <rect x="-28" y="-2.5" width="28" height="2" fill="#222222"/>
    <rect x="-28" y="-2.5" width="28" height="0.4" fill="#5a5a5a"/>
    <!-- rivets on lid band -->
    <circle cx="-25" cy="-1.5" r="0.5" fill="#6a6a6a"/>
    <circle cx="-3" cy="-1.5" r="0.5" fill="#6a6a6a"/>
    <!-- hinge pin (visible at pivot) -->
    <circle cx="-1.5" cy="-0.5" r="1.1" fill="#5a5a5a"/>
    <circle cx="-1.5" cy="-0.5" r="0.4" fill="#1a0a05"/>
    <!-- lock clasp (the bit that grips the lock plate when closed) -->
    <rect x="-16.5" y="-1" width="5" height="2.8" fill="#7a5818"/>
    <rect x="-16.5" y="-1" width="5" height="2.8" fill="none" stroke="#2a1808" stroke-width="0.5"/>
    <rect x="-16" y="-0.5" width="4" height="0.7" fill="#d4a850"/>
  </g>

  <!-- SPARKLES (above everything, only while chest is open — arcs out from chest mouth) -->
  <g>
    <animate attributeName="opacity"
             values="0;0;0;0;0;0;0;0;0;0;0.5;1;1;1;1;1;1;1;1;1;1;0.8;0.4;0;0;0;0;0;0;0"
             dur="3s" repeatCount="indefinite"/>

    <!-- Sparkle 1: arcs UP-LEFT from chest mouth -->
    <g>
      <animateTransform attributeName="transform" type="translate"
                        values="32,24; 26,19; 20,14; 14,10; 10,8; 10,8; 10,8; 10,8; 32,24"
                        dur="1.2s" repeatCount="indefinite"/>
      <g>
        <animate attributeName="opacity" values="0.9;1;0.7;0.4;0.1;0;0;0;0.9" dur="1.2s" repeatCount="indefinite"/>
        <polygon points="0,-2.4 0.5,-0.5 2.4,0 0.5,0.5 0,2.4 -0.5,0.5 -2.4,0 -0.5,-0.5" fill="#ffffff"/>
        <circle cx="0" cy="0" r="0.6" fill="#fff8cc"/>
      </g>
    </g>

    <!-- Sparkle 2: arcs UP-RIGHT, phase-shifted via shifted values -->
    <g>
      <animateTransform attributeName="transform" type="translate"
                        values="10,8; 10,8; 32,24; 36,19; 42,14; 48,10; 52,8; 52,8; 10,8"
                        dur="1.2s" repeatCount="indefinite"/>
      <g>
        <animate attributeName="opacity" values="0;0;0.9;1;0.7;0.4;0.1;0;0" dur="1.2s" repeatCount="indefinite"/>
        <polygon points="0,-1.8 0.4,-0.4 1.8,0 0.4,0.4 0,1.8 -0.4,0.4 -1.8,0 -0.4,-0.4" fill="#ffffff"/>
      </g>
    </g>

    <!-- Sparkle 3: small fast burst straight up, then resets -->
    <g>
      <animateTransform attributeName="transform" type="translate"
                        values="32,26; 32,20; 32,12; 32,6; 32,26; 32,26"
                        dur="0.8s" repeatCount="indefinite"/>
      <g>
        <animate attributeName="opacity" values="0.7;1;0.6;0.1;0;0.7" dur="0.8s" repeatCount="indefinite"/>
        <polygon points="0,-1.4 0.3,-0.3 1.4,0 0.3,0.3 0,1.4 -0.3,0.3 -1.4,0 -0.3,-0.3" fill="#ffffff"/>
      </g>
    </g>
  </g>
</svg>
